<?xml version="1.0" encoding="utf-8"?>
<!-- Generator: Adobe Illustrator 25.0.0, SVG Export Plug-In . SVG Version: 6.00 Build 0)  -->
<svg version="1.1" id="Layer_1" xmlns="http://www.w3.org/2000/svg" xmlns:xlink="http://www.w3.org/1999/xlink" x="0px" y="0px"
	 viewBox="0 0 1000 1000" style="enable-background:new 0 0 1000 1000;" xml:space="preserve">
<style type="text/css">
	.st0{fill:#FFFFFF;}
</style>
<g>
	<circle class="st0" cx="249.1" cy="779" r="164.5"/>
	<g>
		<path class="st0" d="M432.5,548.9l-5.3-5.5c0.1,2,0.3,4,0.5,6C429.3,549,430.9,548.9,432.5,548.9z"/>
		<path class="st0" d="M419.8,443.9c48.9-2.9,93.3-1.8,131.9,25.4c40.7,28.6,67.3,67.7,78.9,116.4c6,25,11.9,50,16.8,75.2
			c2.3,12,6.8,17,20,11.2c0-159.6,0-319.5,0-479.3c-16.6-2.2-17-2.2-19,11c-6.7,45.1-16.5,89.1-39.4,129.2
			c-40.4,71.1-107,103-186.3,88.4c0-115.2,0-230.6,0-348.2c84.1,3.3,167.2-6.3,249.7,10.5c61.1,12.4,108.7,44.2,142,96.3
			c14.2,22.1,26.3,45.8,36.5,69.9c10.5,24.8,17,51.3,26.4,76.6c2.1,5.8,9.3,9.6,14.1,14.4c1.3-1.3,2.6-2.6,4-4
			c0-93.8,0-187.5,0-281.9c-261.6,0-521.8,0-781.9,0c-6.8,22.4,8.8,18.4,20.2,18.6c88.4,1.5,128.4,38.8,131.5,126.8
			c1.8,51.3-0.4,102.8-1,154.3c0,3.7-1.3,7.5-2.7,15.1c-25.2-25.4-49.9-50.2-74.3-74.8l240,248.3
			C424.8,510.4,422.4,477.8,419.8,443.9z"/>
		<path class="st0" d="M915.3,490.5c-13.5-5.2-18.8-0.5-23.3,12.9c-12.8,37.6-24.3,76.3-42.7,111.2c-39,74-99.6,123.4-182.2,143.7
			c-13.4,3.3-27.9,5.8-38.2-5.7C586.3,705.3,767,894.7,767,894.7S427.4,545.4,427.2,543.4c0,0-295-303.7-322.3-331.2
			c-1.3,1.4-2.7,2.8-4,4.1c230.6,243.2,461.3,486.4,691.9,729.5c1.9-1.5,3.7-3.1,5.6-4.6c-29-56.8-79.4-96.7-124.6-148.5
			c84.2,0,162.3,0,241.5,0C915.3,690,915.3,590.3,915.3,490.5z"/>
	</g>
</g>
</svg>
