<?xml version="1.0" encoding="utf-8"?>
<!-- Generator: Adobe Illustrator 25.0.0, SVG Export Plug-In . SVG Version: 6.00 Build 0)  -->
<svg version="1.1" id="Layer_1" xmlns="http://www.w3.org/2000/svg" xmlns:xlink="http://www.w3.org/1999/xlink" x="0px" y="0px"
	 viewBox="0 0 1000 1000" style="enable-background:new 0 0 1000 1000;" xml:space="preserve">
<style type="text/css">
	.st0{fill:#FBD0A5;}
</style>
<g>
	<circle class="st0" cx="249.11" cy="778.98" r="164.49"/>
	<g>
		<path class="st0" d="M432.55,548.86l-5.3-5.48c0.15,2,0.3,3.98,0.45,5.98C429.32,549.04,430.94,548.9,432.55,548.86z"/>
		<path class="st0" d="M419.83,443.9c48.89-2.86,93.29-1.84,131.9,25.36c40.66,28.65,67.29,67.68,78.88,116.37
			c5.95,25,11.9,50.02,16.75,75.24c2.32,12.05,6.81,16.97,20,11.15c0-159.59,0-319.48,0-479.27c-16.63-2.17-17.03-2.23-19.01,11.03
			c-6.71,45.06-16.55,89.1-39.38,129.25C568.52,404.18,501.92,436,422.67,421.45c0-115.21,0-230.55,0-348.23
			c84.06,3.3,167.2-6.27,249.7,10.48c61.09,12.4,108.65,44.21,142.01,96.26c14.15,22.07,26.32,45.75,36.53,69.9
			c10.49,24.82,16.97,51.32,26.41,76.63c2.14,5.75,9.28,9.63,14.12,14.37c1.32-1.32,2.64-2.64,3.96-3.96c0-93.75,0-187.49,0-281.91
			c-261.57,0-521.85,0-781.91,0c-6.75,22.44,8.81,18.44,20.24,18.64c88.42,1.53,128.36,38.78,131.48,126.75
			c1.82,51.35-0.43,102.85-0.99,154.28c-0.04,3.74-1.29,7.48-2.7,15.15c-25.2-25.38-49.86-50.2-74.27-74.78l240,248.34
			C424.79,510.39,422.36,477.75,419.83,443.9z"/>
		<path class="st0" d="M915.29,490.45c-13.45-5.16-18.75-0.51-23.3,12.86c-12.81,37.59-24.32,76.28-42.7,111.19
			c-39,74.04-99.63,123.43-182.18,143.74c-13.4,3.3-27.94,5.8-38.24-5.66c-42.53-47.28,138.09,142.15,138.09,142.15
			S427.4,545.37,427.25,543.38c0,0-295.02-303.73-322.34-331.24c-1.34,1.38-2.69,2.77-4.03,4.15
			c230.64,243.18,461.28,486.36,691.93,729.54c1.86-1.54,3.72-3.09,5.58-4.63c-29.02-56.82-79.43-96.67-124.61-148.46
			c84.18,0,162.3,0,241.51,0C915.29,690.03,915.29,590.26,915.29,490.45z"/>
	</g>
</g>
</svg>
